<!-- icon666.com - MILLIONS vector ICONS FREE --><svg viewBox="0 0 128 128" xmlns="http://www.w3.org/2000/svg"><g><path d="m115.5 62.728a1.75 1.75 0 0 0 1.75-1.75v-9a1.75 1.75 0 0 0 -3.5 0v9a1.75 1.75 0 0 0 1.75 1.75z"></path><path d="m115.5 12.92h-13.25v-6.42a1.75 1.75 0 0 0 -1.75-1.75h-6a1.75 1.75 0 0 0 -1.75 1.75v6.42h-12.833v-6.42a1.75 1.75 0 0 0 -1.75-1.75h-6a1.75 1.75 0 0 0 -1.75 1.75v6.42h-12.834v-6.42a1.75 1.75 0 0 0 -1.75-1.75h-6a1.751 1.751 0 0 0 -1.75 1.75v6.42h-12.833v-6.42a1.751 1.751 0 0 0 -1.75-1.75h-6a1.751 1.751 0 0 0 -1.75 1.75v6.42h-13.25a7.759 7.759 0 0 0 -7.75 7.75v94.83a7.759 7.759 0 0 0 7.75 7.75h103a7.759 7.759 0 0 0 7.75-7.75v-94.83a7.759 7.759 0 0 0 -7.75-7.75zm-107.25 26.16h111.5v63.332a4.255 4.255 0 0 1 -4.25 4.25h-103a4.255 4.255 0 0 1 -4.25-4.25zm88-30.83h2.5v12.833h-2.5zm-19.833 0v12.833h-2.5v-6.383c0-.01 0-.019 0-.029s0-.019 0-.029v-6.392zm-24.834 0h2.5v6.386.034s0 .022 0 .034v6.379h-2.5zm-22.333 0h2.5v12.833h-2.5zm-21 12.42a4.255 4.255 0 0 1 4.25-4.25h13.25v6.413a1.75 1.75 0 0 0 1.75 1.75h6a1.75 1.75 0 0 0 1.75-1.75v-6.413h12.833v6.413a1.75 1.75 0 0 0 1.75 1.75h6a1.749 1.749 0 0 0 1.75-1.75v-6.413h12.834v6.413a1.749 1.749 0 0 0 1.75 1.75h6a1.749 1.749 0 0 0 1.75-1.75v-6.413h12.833v6.413a1.749 1.749 0 0 0 1.75 1.75h6a1.749 1.749 0 0 0 1.75-1.75v-6.413h13.25a4.255 4.255 0 0 1 4.25 4.25v14.91h-111.5zm107.25 99.08h-103a4.255 4.255 0 0 1 -4.25-4.25v-6.615a7.7 7.7 0 0 0 4.25 1.277h103a7.7 7.7 0 0 0 4.25-1.277v6.615a4.255 4.255 0 0 1 -4.25 4.25z"></path><path d="m22.167 61.086h9a1.75 1.75 0 0 0 1.75-1.75v-9a1.751 1.751 0 0 0 -1.75-1.75h-9a1.75 1.75 0 0 0 -1.75 1.75v9a1.749 1.749 0 0 0 1.75 1.75zm1.75-9h5.5v5.5h-5.5z"></path><path d="m40.833 61.086h9a1.749 1.749 0 0 0 1.75-1.75v-9a1.75 1.75 0 0 0 -1.75-1.75h-9a1.751 1.751 0 0 0 -1.75 1.75v9a1.75 1.75 0 0 0 1.75 1.75zm1.75-9h5.5v5.5h-5.5z"></path><path d="m59.5 61.086h9a1.749 1.749 0 0 0 1.75-1.75v-9a1.75 1.75 0 0 0 -1.75-1.75h-9a1.751 1.751 0 0 0 -1.75 1.75v9a1.75 1.75 0 0 0 1.75 1.75zm1.75-9h5.5v5.5h-5.5z"></path><path d="m78.167 61.086h9a1.749 1.749 0 0 0 1.75-1.75v-9a1.75 1.75 0 0 0 -1.75-1.75h-9a1.75 1.75 0 0 0 -1.75 1.75v9a1.749 1.749 0 0 0 1.75 1.75zm1.75-9h5.5v5.5h-5.5z"></path><path d="m96.833 61.086h9a1.749 1.749 0 0 0 1.75-1.75v-9a1.75 1.75 0 0 0 -1.75-1.75h-9a1.75 1.75 0 0 0 -1.75 1.75v9a1.749 1.749 0 0 0 1.75 1.75zm1.75-9h5.5v5.5h-5.5z"></path><path d="m22.167 79.123h9a1.751 1.751 0 0 0 1.75-1.75v-9a1.75 1.75 0 0 0 -1.75-1.75h-9a1.749 1.749 0 0 0 -1.75 1.75v9a1.75 1.75 0 0 0 1.75 1.75zm1.75-9h5.5v5.5h-5.5z"></path><path d="m40.833 79.123h9a1.75 1.75 0 0 0 1.75-1.75v-9a1.749 1.749 0 0 0 -1.75-1.75h-9a1.75 1.75 0 0 0 -1.75 1.75v9a1.751 1.751 0 0 0 1.75 1.75zm1.75-9h5.5v5.5h-5.5z"></path><path d="m59.5 79.123h9a1.75 1.75 0 0 0 1.75-1.75v-9a1.749 1.749 0 0 0 -1.75-1.75h-9a1.75 1.75 0 0 0 -1.75 1.75v9a1.751 1.751 0 0 0 1.75 1.75zm1.75-9h5.5v5.5h-5.5z"></path><path d="m78.167 79.123h9a1.75 1.75 0 0 0 1.75-1.75v-9a1.749 1.749 0 0 0 -1.75-1.75h-9a1.749 1.749 0 0 0 -1.75 1.75v9a1.75 1.75 0 0 0 1.75 1.75zm1.75-9h5.5v5.5h-5.5z"></path><path d="m96.833 79.123h9a1.75 1.75 0 0 0 1.75-1.75v-9a1.749 1.749 0 0 0 -1.75-1.75h-9a1.749 1.749 0 0 0 -1.75 1.75v9a1.75 1.75 0 0 0 1.75 1.75zm1.75-9h5.5v5.5h-5.5z"></path><path d="m22.167 97.159h9a1.751 1.751 0 0 0 1.75-1.75v-9a1.75 1.75 0 0 0 -1.75-1.75h-9a1.749 1.749 0 0 0 -1.75 1.75v9a1.75 1.75 0 0 0 1.75 1.75zm1.75-9h5.5v5.5h-5.5z"></path><path d="m40.833 97.159h9a1.75 1.75 0 0 0 1.75-1.75v-9a1.749 1.749 0 0 0 -1.75-1.75h-9a1.75 1.75 0 0 0 -1.75 1.75v9a1.751 1.751 0 0 0 1.75 1.75zm1.75-9h5.5v5.5h-5.5z"></path><path d="m59.5 97.159h9a1.75 1.75 0 0 0 1.75-1.75v-9a1.749 1.749 0 0 0 -1.75-1.75h-9a1.75 1.75 0 0 0 -1.75 1.75v9a1.751 1.751 0 0 0 1.75 1.75zm1.75-9h5.5v5.5h-5.5z"></path><path d="m78.167 97.159h9a1.75 1.75 0 0 0 1.75-1.75v-9a1.749 1.749 0 0 0 -1.75-1.75h-9a1.749 1.749 0 0 0 -1.75 1.75v9a1.75 1.75 0 0 0 1.75 1.75zm1.75-9h5.5v5.5h-5.5z"></path><path d="m96.833 97.159h9a1.75 1.75 0 0 0 1.75-1.75v-9a1.749 1.749 0 0 0 -1.75-1.75h-9a1.749 1.749 0 0 0 -1.75 1.75v9a1.75 1.75 0 0 0 1.75 1.75zm1.75-9h5.5v5.5h-5.5z"></path></g></svg>